<svg width="127" height="127" viewBox="0 0 127 127" fill="none" xmlns="http://www.w3.org/2000/svg">
<path d="M101 26H1V126H101V26Z" fill="#F57C00"/>
<path d="M101 26V126L126 101V1L101 26Z" fill="#AF5A02"/>
<path d="M1 26H101L126 1H26L1 26Z" fill="#633303"/>
<path d="M126.5 101.207L101.207 126.5H0.5V25.793L25.793 0.5H126.5V101.207Z" stroke="white"/>
<path d="M32.5567 108C31.7313 108 31.0091 107.69 30.39 107.071C29.771 106.452 29.4614 105.73 29.4614 104.905V67.7619C29.4614 66.9365 29.771 66.2143 30.39 65.5952C31.0091 64.9762 31.7313 64.6667 32.5567 64.6667C33.3821 64.6667 34.1043 64.9762 34.7234 65.5952L54.2234 85.0952V67.7619C54.2234 66.9365 54.5329 66.2143 55.1519 65.5952C55.771 64.9762 56.4932 64.6667 57.3186 64.6667C58.144 64.6667 58.8662 64.9762 59.4853 65.5952C60.1043 66.2143 60.4138 66.9365 60.4138 67.7619V104.905C60.4138 105.73 60.1043 106.452 59.4853 107.071C58.8662 107.69 58.144 108 57.3186 108C56.4932 108 55.771 107.69 55.1519 107.071C54.5329 106.452 54.2234 105.73 54.2234 104.905V93.7619L35.6519 75.1905V104.905C35.6519 105.73 35.3424 106.452 34.7234 107.071C34.1043 107.69 33.3821 108 32.5567 108ZM75.881 108C73.4048 108 71.2381 107.071 69.381 105.214C67.5238 103.357 66.5952 101.19 66.5952 98.7143C66.5952 96.2381 67.5238 94.0714 69.381 92.2143C71.2381 90.3571 73.4048 89.4286 75.881 89.4286H91.3571V86.3333C91.3571 85.5079 91.0476 84.7857 90.4286 84.1667C89.8095 83.5476 89.0873 83.2381 88.2619 83.2381H75.881C75.0556 83.2381 74.3333 82.9286 73.7143 82.3095C73.0952 81.6905 72.7857 80.9683 72.7857 80.1429C72.7857 79.3175 73.0952 78.5952 73.7143 77.9762C74.3333 77.3571 75.0556 77.0476 75.881 77.0476H88.2619C90.7381 77.0476 92.9048 77.9762 94.7619 79.8333C96.619 81.6905 97.5476 83.8571 97.5476 86.3333V104.905C97.5476 105.73 97.2381 106.452 96.619 107.071C96 107.69 95.2778 108 94.4524 108H75.881ZM91.3571 95.619H75.881C75.0556 95.619 74.3333 95.9286 73.7143 96.5476C73.0952 97.1667 72.7857 97.8889 72.7857 98.7143C72.7857 99.5397 73.0952 100.262 73.7143 100.881C74.3333 101.5 75.0556 101.81 75.881 101.81H91.3571V95.619Z" fill="white"/>
<path d="M8.80952 35.4762C8.55556 35.4762 8.33333 35.381 8.14286 35.1905C7.95238 35 7.85714 34.7778 7.85714 34.5238C7.85714 34.2698 7.95238 34.0476 8.14286 33.8571L10.0476 31.9524C10.2381 31.7619 10.4603 31.6667 10.7143 31.6667C10.9683 31.6667 11.1905 31.7619 11.381 31.9524C11.5714 32.1429 11.6667 32.3651 11.6667 32.619V43.0952H12.619C12.873 43.0952 13.0952 43.1905 13.2857 43.381C13.4762 43.5714 13.5714 43.7937 13.5714 44.0476C13.5714 44.3016 13.4762 44.5238 13.2857 44.7143C13.0952 44.9048 12.873 45 12.619 45H8.80952C8.55556 45 8.33333 44.9048 8.14286 44.7143C7.95238 44.5238 7.85714 44.3016 7.85714 44.0476C7.85714 43.7937 7.95238 43.5714 8.14286 43.381C8.33333 43.1905 8.55556 43.0952 8.80952 43.0952H9.7619V34.8667L9.47619 35.1905C9.28571 35.381 9.06349 35.4762 8.80952 35.4762ZM18.3305 35.4762C18.0766 35.4762 17.8544 35.381 17.6639 35.1905C17.4734 35 17.3782 34.7778 17.3782 34.5238C17.3782 33.7619 17.6639 33.0952 18.2353 32.5238C18.8067 31.9524 19.4734 31.6667 20.2353 31.6667H24.0448C24.8067 31.6667 25.4734 31.9524 26.0448 32.5238C26.6163 33.0952 26.902 33.7619 26.902 34.5238V36.4286C26.902 36.6825 26.8067 36.9048 26.6163 37.0952L20.5782 43.0952H25.9496C26.2036 43.0952 26.4258 43.1905 26.6163 43.381C26.8067 43.5714 26.902 43.7937 26.902 44.0476C26.902 44.3016 26.8067 44.5238 26.6163 44.7143C26.4258 44.9048 26.2036 45 25.9496 45H18.3305C18.0766 45 17.8544 44.9048 17.6639 44.7143C17.4734 44.5238 17.3782 44.3016 17.3782 44.0476C17.3782 43.7937 17.4734 43.5714 17.6639 43.381L24.9972 36.0095V34.5238C24.9972 34.2698 24.902 34.0476 24.7115 33.8571C24.521 33.6667 24.2988 33.5714 24.0448 33.5714H20.2353C19.9813 33.5714 19.7591 33.6667 19.5686 33.8571C19.3782 34.0476 19.2829 34.2698 19.2829 34.5238C19.2829 34.7778 19.1877 35 18.9972 35.1905C18.8067 35.381 18.5845 35.4762 18.3305 35.4762Z" fill="white"/>
</svg>
